# xmcd CD database file
#
# Track frame offsets:
#	150
#	20835
#	32512
#	47955
#	62530
#	74420
#	89332
#	100575
#	113692
#	126522
#	133245
#	145330
#	159460
#	170647
#	186450
#	199462
#	219450
#	233727
#	247745
#	262270
#	276072
#	288807
#	310705
#	325995
#
# Disc length: 4539 seconds
#
# Revision: 82
# Processed by: cddbd v1.5.2PL0 Copyright (c) Steve Scherf et al.
# Submitted via: CDex 2.15
#
DISCID=6f11b918
DTITLE=Frank Sinatra - Frank Sinatra - My Way (The Best Of Frank) CD 01
DYEAR=1997
DGENRE=Jazz
TTITLE0=My Way
TTITLE1=Strangers In The Night
TTITLE2=Theme From New York New York
TTITLE3=I Get A Kick Out Of You
TTITLE4=Something Stupid (with Nancy Sinatra)
TTITLE5=Moon River
TTITLE6=What Now My Love
TTITLE7=Summer Wind
TTITLE8=For Once In My Life
TTITLE9=Love And Marriage
TTITLE10=They Can't Take That Away From Me
TTITLE11=My Kind Of Town
TTITLE12=Fly Me To The Moon (In Other Words) (Count Basie And His Orchestra)
TTITLE13=I've Got You Under My Skin
TTITLE14=The Best Is Yet To Come (Count Basie And His Orchestra)
TTITLE15=It Was A Very Good Year
TTITLE16=Come Fly With Me
TTITLE17=That's Life
TTITLE18=The Girl From Ipanema (with Antonio Carlos Jobim)
TTITLE19=The Lady Is A Tramp (feat. Woody Herman And The Young Thundering Herd)
TTITLE20=Bad, Bad Leroy Brown
TTITLE21=Mack The Knife (with Quincy Jones And Orchestra)
TTITLE22=Love's Been Good To Me
TTITLE23=L.A. Is My Lady (with Quincy Jones And Orchestra)
EXTD=YEAR: 1997
EXTT0=
EXTT1=
EXTT2=
EXTT3=
EXTT4=
EXTT5=
EXTT6=
EXTT7=
EXTT8=
EXTT9=
EXTT10=
EXTT11=
EXTT12=
EXTT13=
EXTT14=
EXTT15=
EXTT16=
EXTT17=
EXTT18=
EXTT19=
EXTT20=
EXTT21=
EXTT22=
EXTT23=
PLAYORDER=
